<?xml version="1.0" encoding="UTF-8"?>
<svg id="_레이어_1" data-name="레이어 1" xmlns="http://www.w3.org/2000/svg" viewBox="0 0 1024 1024">
  <defs>
    <style>
      .cls-1 {
        stroke-width: 0px;
      }

      .cls-2 {
        fill: none;
        stroke: #000;
        stroke-linecap: round;
        stroke-linejoin: round;
        stroke-width: 80px;
      }

      .cls-3 {
        font-family: Pretendard-Medium-KSCpc-EUC-H, Pretendard;
        font-size: 260.84px;
        font-weight: 500;
      }
    </style>
  </defs>
  <g>
    <path class="cls-1" d="m308.74,680.93c-18.63,0-34.58-7.37-47.83-22.13-13.26-14.75-19.9-32.5-19.92-53.26v-79.2c0-18.71,15.17-33.88,33.88-33.88h0c18.71,0,33.88,15.17,33.88,33.88v60.09c0,15.39,12.48,27.87,27.87,27.87h350.77c15.39,0,27.87-12.48,27.87-27.87v-60.09c0-18.71,15.17-33.88,33.88-33.88h0c18.71,0,33.88,15.17,33.88,33.88v79.2c0,20.73-6.63,38.48-19.89,53.26-13.26,14.78-29.21,22.15-47.87,22.13h-406.52Z"/>
    <g>
      <line class="cls-2" x1="512" y1="486.43" x2="512" y2="102.24"/>
      <line class="cls-2" x1="512" y1="486.43" x2="350.04" y2="294.33"/>
      <line class="cls-2" x1="512" y1="486.43" x2="673.96" y2="294.33"/>
    </g>
  </g>
  <text class="cls-3" transform="translate(237.61 967.96)"><tspan x="0" y="0">MP3</tspan></text>
</svg>