<?xml version="1.0" encoding="UTF-8"?>
<svg id="_레이어_1" data-name="레이어 1" xmlns="http://www.w3.org/2000/svg" viewBox="0 0 1024 1024">
  <defs>
    <style>
      .cls-1 {
        stroke-width: 62px;
      }

      .cls-1, .cls-2 {
        fill: none;
        stroke: #000;
        stroke-linecap: round;
        stroke-linejoin: round;
      }

      .cls-2 {
        stroke-width: 71px;
      }

      .cls-3 {
        font-family: Pretendard-Medium-KSCpc-EUC-H, Pretendard;
        font-size: 260.84px;
        font-weight: 500;
      }
    </style>
  </defs>
  <g>
    <path class="cls-2" d="m605.17,102.24h-230.11c-14.36,0-28.13,5.7-38.29,15.86-10.15,10.15-15.86,23.93-15.86,38.29v433.15c0,14.36,5.7,28.13,15.86,38.28,10.15,10.15,23.93,15.86,38.29,15.86h324.86c14.36,0,28.13-5.7,38.28-15.86,10.16-10.16,15.86-23.93,15.86-38.28V251.13l-148.89-148.89Z"/>
    <path class="cls-1" d="m591.64,102.24v162.43h162.43m-216.57,270.72v-187.49m0,187.49l-81.21-81.21m81.21,81.21l81.21-81.21"/>
  </g>
  <text class="cls-3" transform="translate(311.17 972.37)"><tspan x="0" y="0">악보</tspan></text>
</svg>