<?xml version="1.0" encoding="UTF-8"?>
<svg id="_레이어_1" data-name="레이어 1" xmlns="http://www.w3.org/2000/svg" viewBox="0 0 1024 1024">
  <defs>
    <style>
      .cls-1 {
        stroke-width: 0px;
      }
    </style>
  </defs>
  <path class="cls-1" d="m219.16,853.65h585.68c12.37,0,24.27,4.7,33.31,13.14,9.04,8.44,14.53,20,15.37,32.34.84,12.34-3.03,24.53-10.83,34.13-7.81,9.59-18.96,15.87-31.21,17.55l-6.64.46H219.16c-12.37,0-24.27-4.7-33.31-13.14-9.04-8.44-14.53-20-15.37-32.34-.84-12.34,3.03-24.53,10.83-34.13,7.8-9.59,18.96-15.87,31.21-17.55l6.64-.46ZM505.36,73.19l6.64-.46c11.79,0,23.19,4.27,32.08,12.02,8.89,7.75,14.67,18.46,16.27,30.15l.46,6.64v500.3l146.75-146.68c8.28-8.27,19.25-13.3,30.92-14.16,11.67-.86,23.26,2.5,32.66,9.47l5.47,4.69c8.27,8.27,13.3,19.25,14.16,30.92.86,11.67-2.5,23.26-9.47,32.66l-4.69,5.47-230.11,230.04c-8.26,8.26-19.22,13.29-30.88,14.16-11.66.87-23.24-2.47-32.64-9.41l-5.47-4.75-230.11-230.04c-8.73-8.71-13.84-20.4-14.31-32.72-.46-12.33,3.76-24.37,11.81-33.71,8.05-9.34,19.35-15.28,31.6-16.64,12.26-1.36,24.57,1.98,34.47,9.34l5.47,4.69,146.74,146.81V121.55c0-11.79,4.27-23.19,12.03-32.08,7.75-8.89,18.46-14.67,30.14-16.27Z"/>
</svg>