<?xml version="1.0" encoding="UTF-8"?>
<svg id="_레이어_1" data-name="레이어 1" xmlns="http://www.w3.org/2000/svg" viewBox="0 0 1024 1024">
  <defs>
    <style>
      .cls-1 {
        fill: #fff;
      }

      .cls-1, .cls-2, .cls-3 {
        stroke-width: 0px;
      }

      .cls-2 {
        fill: #252323;
      }

      .cls-3 {
        fill: #ed1d24;
      }
    </style>
  </defs>
  <path class="cls-3" d="m336.33,442.11c-3.37-10.56-13.3-18.88-25.91-21.7-22.85-5.13-114.49-5.13-114.49-5.13,0,0-91.63,0-114.49,5.13-12.61,2.82-22.54,11.14-25.91,21.7-6.12,19.14-6.12,59.08-6.12,59.08,0,0,0,39.94,6.12,59.08,3.37,10.56,13.3,18.88,25.91,21.7,22.85,5.13,114.49,5.13,114.49,5.13,0,0,91.63,0,114.49-5.13,12.61-2.82,22.54-11.14,25.91-21.7,6.12-19.14,6.12-59.08,6.12-59.08,0,0,0-39.94-6.12-59.08Z"/>
  <path class="cls-1" d="m166.63,538.02l76.13-36.82-76.13-36.82v73.64Z"/>
  <path class="cls-2" d="m507.24,554.75c1.6-3.51,2.41-9.24,2.41-17.2v-33.53c0-7.72-.81-13.37-2.41-16.94-1.61-3.57-4.44-5.35-8.49-5.35s-6.67,1.79-8.28,5.35c-1.61,3.57-2.41,9.22-2.41,16.94v33.53c0,7.96.77,13.69,2.31,17.2,1.53,3.51,4.33,5.27,8.38,5.27s6.88-1.75,8.49-5.27Zm-32.48,16.85c-5.8-3.27-9.92-8.37-12.36-15.27-2.45-6.9-3.67-16.09-3.67-27.56v-15.62c0-11.59,1.39-20.89,4.19-27.91,2.79-7.02,7.16-12.14,13.1-15.36,5.94-3.22,13.72-4.83,23.37-4.83s17.11,1.64,22.84,4.91c5.73,3.28,9.92,8.4,12.57,15.36,2.65,6.96,3.98,16.24,3.98,27.82v15.62c0,11.47-1.29,20.69-3.88,27.65-2.59,6.96-6.78,12.05-12.57,15.27-5.8,3.22-13.65,4.83-23.57,4.83s-18.2-1.64-23.99-4.92Z"/>
  <path class="cls-2" d="m923.5,483.74c-1.47,1.52-2.45,4.01-2.94,7.46-.49,3.45-.73,8.69-.73,15.71v7.72h21.16v-7.72c0-6.9-.28-12.14-.84-15.71-.56-3.57-1.57-6.08-3.04-7.55-1.47-1.46-3.74-2.19-6.81-2.19s-5.34.76-6.81,2.28Zm-3.67,45.29v5.44c0,6.91.24,12.08.73,15.54.49,3.45,1.5,5.97,3.04,7.55,1.54,1.58,3.91,2.37,7.13,2.37,4.32,0,7.29-1.4,8.91-4.21,1.6-2.81,2.47-7.49,2.62-14.04l24.93,1.23c.14.94.21,2.23.21,3.86,0,9.95-3.25,17.38-9.75,22.3-6.49,4.91-15.68,7.37-27.55,7.37-14.25,0-24.24-3.74-29.97-11.24-5.73-7.49-8.6-19.07-8.6-34.76v-18.78c0-16.15,2.97-27.94,8.91-35.37,5.93-7.43,16.1-11.15,30.49-11.15,9.92,0,17.53,1.52,22.84,4.56,5.31,3.04,9.05,7.78,11.21,14.22,2.16,6.44,3.25,15.33,3.25,26.68v18.43h-48.41Z"/>
  <path class="cls-2" d="m404.34,527.01l-32.9-99.53h28.71l11.52,45.11c2.94,11.12,5.1,20.6,6.5,28.44h.84c.98-5.62,3.14-15.04,6.5-28.26l11.94-45.29h28.71l-33.32,99.53v47.75h-28.5v-47.75Z"/>
  <path class="cls-2" d="m632.15,467.15v107.61h-22.63l-2.52-13.16h-.63c-6.15,9.95-15.37,14.92-27.66,14.92-8.52,0-14.81-2.34-18.86-7.02-4.05-4.68-6.08-12-6.08-21.94v-80.4h28.92v78.99c0,4.8.63,8.22,1.89,10.27,1.26,2.05,3.35,3.07,6.29,3.07,2.52,0,4.93-.64,7.23-1.93,2.31-1.29,4.02-2.92,5.14-4.91v-85.49h28.92Z"/>
  <path class="cls-2" d="m780.48,467.15v107.61h-22.64l-2.52-13.16h-.62c-6.15,9.95-15.37,14.92-27.67,14.92-8.52,0-14.81-2.34-18.85-7.02-4.05-4.68-6.08-12-6.08-21.94v-80.4h28.92v78.99c0,4.8.63,8.22,1.89,10.27,1.26,2.05,3.35,3.07,6.29,3.07,2.51,0,4.92-.64,7.22-1.93,2.31-1.29,4.02-2.92,5.14-4.91v-85.49h28.92Z"/>
  <path class="cls-2" d="m710.73,446.97h-28.71v127.79h-28.29v-127.79h-28.71v-19.49h85.71v19.49Z"/>
  <path class="cls-2" d="m849.68,528.25c0,7.84-.39,13.99-1.16,18.43-.77,4.45-2.06,7.61-3.88,9.48-1.81,1.87-4.26,2.81-7.33,2.81-2.38,0-4.58-.47-6.6-1.4-2.03-.94-3.67-2.34-4.93-4.21v-61.09c.98-2.92,2.66-5.32,5.03-7.2,2.37-1.87,4.95-2.81,7.75-2.81,2.94,0,5.2.97,6.82,2.9,1.6,1.93,2.73,5.18,3.35,9.74.63,4.56.94,11.06.94,19.48v13.87Zm26.51-43.89c-1.75-6.79-4.58-11.7-8.49-14.75-3.91-3.04-9.3-4.56-16.14-4.56-5.31,0-10.26,1.26-14.88,3.77-4.61,2.52-8.18,5.82-10.69,9.92h-.21v-56.7h-27.87v152.72h23.89l2.93-10.18h.63c2.23,3.63,5.58,6.49,10.06,8.6,4.47,2.11,9.43,3.16,14.88,3.16,9.78,0,16.97-3.78,21.59-11.32,4.61-7.55,6.92-19.34,6.92-35.37v-17.03c0-12.05-.87-21.47-2.62-28.26Z"/>
</svg>