<?xml version="1.0" encoding="UTF-8"?>
<svg id="_레이어_1" data-name="레이어 1" xmlns="http://www.w3.org/2000/svg" xmlns:xlink="http://www.w3.org/1999/xlink" viewBox="0 0 1024 1024">
  <defs>
    <style>
      .cls-1, .cls-2 {
        stroke-width: 0px;
      }

      .cls-2 {
        fill: none;
      }

      .cls-3 {
        clip-path: url(#clippath);
      }
    </style>
    <clipPath id="clippath">
      <rect class="cls-2" x="-38.76" y="-38.76" width="1101.51" height="1101.51"/>
    </clipPath>
  </defs>
  <g class="cls-3">
    <path class="cls-1" d="m177.6,858.24c-45.97-44.4-82.65-97.52-107.87-156.25-25.23-58.73-38.51-121.89-39.06-185.8-.56-63.91,11.62-127.3,35.83-186.46,24.2-59.16,59.95-112.9,105.14-158.1,45.2-45.2,98.94-80.94,158.1-105.14,59.16-24.2,122.54-36.38,186.46-35.83,63.91.56,127.08,13.83,185.8,39.06,58.73,25.23,111.84,61.9,156.25,107.87,87.68,90.79,136.2,212.38,135.1,338.59-1.1,126.21-51.72,246.94-140.97,336.19-89.25,89.25-209.98,139.87-336.19,140.97-126.21,1.1-247.8-47.42-338.59-135.1Zm612.77-67.87c72.26-72.26,112.85-170.26,112.85-272.45s-40.59-200.19-112.85-272.45c-72.26-72.26-170.26-112.85-272.45-112.85s-200.19,40.59-272.45,112.85c-72.26,72.26-112.85,170.26-112.85,272.45s40.59,200.19,112.85,272.45c72.26,72.26,170.26,112.85,272.45,112.85s200.19-40.6,272.45-112.85Zm-416.86-464.99l385.09,192.54-385.09,192.54v-385.09Z"/>
  </g>
</svg>