<?xml version="1.0" encoding="UTF-8"?>
<svg id="_레이어_1" data-name="레이어 1" xmlns="http://www.w3.org/2000/svg" viewBox="0 0 1024 1024">
  <defs>
    <style>
      .cls-1 {
        fill: #f3f3f3;
      }

      .cls-1, .cls-2, .cls-3, .cls-4, .cls-5, .cls-6 {
        stroke-width: 0px;
      }

      .cls-2 {
        fill: #dc2025;
      }

      .cls-3 {
        fill: #464648;
      }

      .cls-4 {
        fill: #fff;
      }

      .cls-5 {
        fill: #7a7b7c;
      }

      .cls-6 {
        fill: #8f8f8f;
      }
    </style>
  </defs>
  <path class="cls-6" d="m801.37,16.84l198.77,207.2v787.94H257.61v2.57h745.07V226.65L801.37,16.84Z"/>
  <path class="cls-1" d="m798.9,14.27H255.07v997.71h745.07V224.07L798.9,14.27Z"/>
  <path class="cls-5" d="m249.6,67.85H21.33v243.89h718.06V67.85H249.6Z"/>
  <path class="cls-2" d="m743.21,307.6H25.97V63.53h717.24v244.07Z"/>
  <path class="cls-3" d="m263.79,104.79h-46.69v171.48h36.72v-57.84l8.11.46c7.88-.14,15.69-1.55,23.11-4.18,6.51-2.24,12.5-5.78,17.61-10.4,5.2-4.4,9.3-9.95,11.97-16.22,3.58-10.41,4.86-21.48,3.75-32.44-.23-7.83-1.6-15.58-4.07-23.01-2.25-5.36-5.6-10.2-9.83-14.19-4.23-4-9.24-7.07-14.71-9.03-4.74-1.71-9.63-2.96-14.61-3.72-3.77-.58-7.58-.89-11.4-.93m-6.75,81.95h-3.18v-52.87h6.89c3.04-.22,6.1.25,8.93,1.37,2.84,1.12,5.39,2.86,7.46,5.1,4.3,5.75,6.59,12.75,6.54,19.93,0,8.79,0,16.75-7.93,22.36-5.71,3.14-12.22,4.59-18.72,4.11Zm131.14-82.42c-3.97,0-7.82.29-10.54.39l-8.5.21h-27.86v171.48h32.79c12.53.34,25.01-1.78,36.72-6.25,9.43-3.74,17.78-9.77,24.29-17.54,6.34-7.84,10.89-16.97,13.33-26.76,2.81-11.08,4.18-22.47,4.07-33.9.69-13.5-.35-27.03-3.11-40.26-2.62-9.74-7.51-18.72-14.29-26.19-5.32-6.03-11.82-10.9-19.11-14.29-6.26-2.9-12.84-5.03-19.61-6.36-2.69-.44-5.42-.65-8.15-.61m-6.5,140.65h-3.57v-109.46h.46c7.37-.85,14.81.48,21.43,3.82,4.85,3.87,8.8,8.75,11.57,14.29,3,5.84,4.73,12.24,5.07,18.79.32,7.86,0,14.29,0,19.61.15,6.13-.25,12.26-1.18,18.33-1.1,6.22-3.14,12.25-6.04,17.86-3.28,5.22-7.72,9.62-12.97,12.86-4.41,2.85-9.63,4.18-14.86,3.79m181.48-139.86h-86.81v171.48h36.72v-68.02h46.44v-31.87h-46.44v-39.73h50.01v-31.87"/>
  <path class="cls-2" d="m718.53,666.41s113.89-20.65,113.89,18.26-70.56,23.08-113.89-18.26Zm-84.2,2.97c-18.1,4-35.73,9.85-52.62,17.47l14.29-32.15c14.29-32.15,29.12-75.99,29.12-75.99,17.05,28.7,36.89,55.65,59.23,80.45-16.85,2.51-33.55,5.95-50.01,10.29v-.07Zm-45.08-232.21c0-33.9,10.97-43.15,19.51-43.15s18.15,4.11,18.47,33.55c-2.78,29.6-8.98,58.78-18.47,86.95-13-23.66-19.73-50.24-19.54-77.24l.04-.11Zm-166.08,375.68c-34.94-20.9,73.27-85.24,92.88-87.31-.11.04-56.3,109.17-92.88,87.31Zm442.52-123.57c-.36-3.57-3.57-43.12-73.95-41.44-29.34-.47-58.66,1.6-87.63,6.18-28.07-28.28-52.24-60.18-71.88-94.85,12.37-35.75,19.86-73,22.26-110.75-1.04-42.87-11.29-67.45-44.16-67.09-32.87.36-37.65,29.12-33.33,71.91,4.23,28.76,12.22,56.84,23.76,83.52,0,0-15.18,47.26-35.26,94.28-20.08,47.01-33.8,71.66-33.8,71.66-34.91,11.36-67.78,28.25-97.35,50.01-29.44,27.4-41.4,48.44-25.9,69.48,13.36,18.15,60.12,22.26,101.92-32.51,22.21-28.29,42.5-58.03,60.73-89.02,0,0,63.73-17.47,83.56-22.26,19.83-4.79,43.8-8.57,43.8-8.57,0,0,58.19,58.55,114.32,56.48,56.12-2.07,53.41-33.55,53.05-36.97"/>
  <path class="cls-6" d="m796.15,17.02v209.81h201.24L796.15,17.02Z"/>
  <path class="cls-1" d="m798.9,14.27v209.81h201.24L798.9,14.27Z"/>
  <path class="cls-4" d="m261.04,102.04h-46.69v171.48h36.87v-57.8l8.15.46c7.88-.14,15.69-1.55,23.11-4.18,6.51-2.24,12.5-5.78,17.61-10.4,5.16-4.41,9.22-9.97,11.86-16.22,3.58-10.41,4.86-21.48,3.75-32.44-.23-7.83-1.6-15.58-4.07-23.01-2.26-5.36-5.6-10.2-9.83-14.19-4.23-4-9.24-7.07-14.72-9.03-4.76-1.73-9.68-2.99-14.68-3.75-3.77-.58-7.58-.89-11.4-.93m-6.75,81.95h-3.18v-52.87h6.93c3.04-.22,6.1.25,8.93,1.37s5.39,2.86,7.46,5.1c4.3,5.75,6.59,12.75,6.54,19.93,0,8.79,0,16.75-7.93,22.36-5.71,3.14-12.22,4.56-18.72,4.07m131.11-82.38c-3.97,0-7.82.29-10.54.39l-8.4.21h-27.86v171.48h32.79c12.53.34,25.01-1.78,36.72-6.25,9.43-3.74,17.78-9.77,24.29-17.54,6.33-7.84,10.88-16.98,13.33-26.76,2.8-11.08,4.17-22.47,4.07-33.9.69-13.5-.35-27.03-3.11-40.26-2.62-9.74-7.52-18.72-14.29-26.19-5.32-6.03-11.82-10.9-19.11-14.29-6.26-2.9-12.85-5.03-19.61-6.36-2.69-.44-5.42-.65-8.15-.61m-6.5,140.65h-3.57v-109.46h.46c7.36-.85,14.81.48,21.43,3.82,4.84,3.87,8.8,8.75,11.57,14.29,3,5.83,4.73,12.24,5.07,18.79.32,7.86,0,14.29,0,19.61.14,6.13-.25,12.26-1.18,18.33-1.1,6.22-3.14,12.25-6.04,17.86-3.28,5.22-7.72,9.62-12.97,12.86-4.41,2.85-9.63,4.18-14.86,3.79m181.37-139.86h-86.81v171.48h36.72v-68.02h46.44v-31.87h-46.44v-39.73h50.01v-31.87"/>
</svg>